<svg width="15" height="8" viewBox="0 0 15 8" fill="none" xmlns="http://www.w3.org/2000/svg">
<path d="M8.4157 0.382978L14.7384 6.55319C14.8256 6.6383 14.891 6.7305 14.9346 6.82979C14.9782 6.92908 15 7.03546 15 7.14894C15 7.37589 14.9201 7.57447 14.7602 7.74468C14.6003 7.91489 14.3895 8 14.1279 8L0.872093 8C0.610465 8 0.39971 7.91489 0.239825 7.74468C0.0799417 7.57447 0 7.37589 0 7.14894C0 7.0922 0.0872107 6.89362 0.261629 6.55319L6.5843 0.382978C6.72965 0.241135 6.875 0.141843 7.02035 0.0851059C7.1657 0.028368 7.32558 0 7.5 0C7.67442 0 7.8343 0.028368 7.97965 0.0851059C8.125 0.141843 8.27035 0.241135 8.4157 0.382978Z" fill="#FFB770"/>
</svg>
